<svg xmlns="http://www.w3.org/2000/svg" viewBox="0 0 256 256">
  <rect width="256" height="256" rx="48" fill="#fff4d8"/>
  <ellipse cx="128" cy="226" rx="74" ry="12" fill="#f0d7a0"/>
  <ellipse cx="128" cy="86" rx="78" ry="28" fill="#ffe9b8"/>
  <rect x="50" y="86" width="156" height="92" fill="#ff8a2a"/>
  <path d="M50 110h156M50 134h156M50 158h156" stroke="#ffd27a" stroke-width="8"/>
  <ellipse cx="128" cy="178" rx="78" ry="28" fill="#e56b12"/>
  <ellipse cx="128" cy="86" rx="62" ry="18" fill="#fffaf0"/>
  <circle cx="78" cy="86" r="7" fill="#c47a3e"/>
  <circle cx="128" cy="80" r="7" fill="#c47a3e"/>
  <circle cx="178" cy="86" r="7" fill="#c47a3e"/>
  <rect x="168" y="36" width="12" height="92" rx="6" fill="#6c63ff" transform="rotate(22 174 82)"/>
  <rect x="196" y="28" width="12" height="100" rx="6" fill="#ff5d8f" transform="rotate(-18 202 78)"/>
  <circle cx="196" cy="34" r="10" fill="#ffe066"/>
  <circle cx="214" cy="48" r="10" fill="#ff8fab"/>
</svg>
