<svg xmlns="http://www.w3.org/2000/svg" viewBox="0 0 256 256">
  <rect width="256" height="256" rx="48" fill="#e7f8ff"/>
  <ellipse cx="128" cy="228" rx="86" ry="12" fill="#8fd36a"/>
  <rect x="176" y="58" width="22" height="48" rx="6" fill="#c47a3e"/>
  <path d="M186 40c10 8 18 8 26 0" fill="none" stroke="#cfd8e3" stroke-width="6" stroke-linecap="round"/>
  <path d="M196 28c8 8 14 8 20 0" fill="none" stroke="#cfd8e3" stroke-width="5" stroke-linecap="round"/>
  <polygon points="28,126 128,42 228,126" fill="#e23b3b"/>
  <polygon points="52,126 128,62 204,126" fill="#ff5d6c"/>
  <rect x="58" y="122" width="140" height="92" fill="#ffe7a8"/>
  <rect x="112" y="150" width="32" height="64" rx="8" fill="#b56a32"/>
  <circle cx="138" cy="184" r="4" fill="#ffe7a8"/>
  <rect x="76" y="142" width="28" height="28" rx="6" fill="#7ad7f0"/>
  <rect x="152" y="142" width="28" height="28" rx="6" fill="#7ad7f0"/>
  <path d="M90 156h0M166 156h0" stroke="#fff" stroke-width="3"/>
  <line x1="90" y1="142" x2="90" y2="170" stroke="#fff" stroke-width="3"/>
  <line x1="76" y1="156" x2="104" y2="156" stroke="#fff" stroke-width="3"/>
  <line x1="166" y1="142" x2="166" y2="170" stroke="#fff" stroke-width="3"/>
  <line x1="152" y1="156" x2="180" y2="156" stroke="#fff" stroke-width="3"/>
</svg>
