<svg xmlns="http://www.w3.org/2000/svg" viewBox="0 0 512 512">
  <defs>
    <radialGradient id="bg" cx="50%" cy="40%" r="70%">
      <stop offset="0%" stop-color="#fff6d6"/>
      <stop offset="100%" stop-color="#d8f5c8"/>
    </radialGradient>
    <radialGradient id="whole" cx="38%" cy="32%" r="70%">
      <stop offset="0%" stop-color="#7ee36a"/>
      <stop offset="55%" stop-color="#2db24a"/>
      <stop offset="100%" stop-color="#157a32"/>
    </radialGradient>
    <linearGradient id="stripe" x1="0" y1="0" x2="1" y2="0">
      <stop offset="0%" stop-color="#0f6a28"/>
      <stop offset="100%" stop-color="#1f8a38"/>
    </linearGradient>
    <radialGradient id="flesh" cx="45%" cy="40%" r="70%">
      <stop offset="0%" stop-color="#ff8a9a"/>
      <stop offset="45%" stop-color="#ef2d4a"/>
      <stop offset="100%" stop-color="#c41532"/>
    </radialGradient>
    <filter id="soft" x="-20%" y="-20%" width="140%" height="140%">
      <feDropShadow dx="0" dy="18" stdDeviation="12" flood-color="#2d6b24" flood-opacity=".28"/>
    </filter>
  </defs>
  <rect width="512" height="512" rx="72" fill="url(#bg)"/>
  <ellipse cx="256" cy="455" rx="170" ry="22" fill="#7bb85a" opacity=".45"/>
  <g filter="url(#soft)">
    <circle cx="168" cy="250" r="128" fill="url(#whole)"/>
    <path d="M80 210c18-70 70-118 148-128 8 42-8 90-48 128-32 30-72 38-100 0z" fill="#ffffff55"/>
    <path d="M92 168c22-8 28-4 18 18M128 118c18-14 32-8 14 16M188 92c10-10 24-6 8 14" stroke="#0d5c24" stroke-width="14" fill="none" stroke-linecap="round" opacity=".55"/>
    <path d="M70 268c30 8 48 4 38-18M96 318c26 16 50 8 28-14M150 352c22 18 46 8 22-16" stroke="#0d5c24" stroke-width="14" fill="none" stroke-linecap="round" opacity=".45"/>
    <circle cx="128" cy="196" r="18" fill="#ffffffaa"/>
  </g>
  <g filter="url(#soft)" transform="translate(36,8)">
    <path d="M232 168c92-8 168 62 160 154-6 72-78 128-164 132-86 4-158-52-164-124-8-92 76-154 168-162z" fill="#1f8f3a"/>
    <path d="M240 188c76-6 138 54 132 128-4 58-64 104-136 108-72 4-132-42-136-100-6-76 64-130 140-136z" fill="#f7fff4"/>
    <path d="M248 204c64-4 116 48 112 108-4 48-54 88-116 92-62 4-112-34-116-84-6-64 56-112 120-116z" fill="url(#flesh)"/>
    <ellipse cx="268" cy="268" rx="8" ry="14" fill="#2a1810" transform="rotate(-20 268 268)"/>
    <ellipse cx="318" cy="292" rx="8" ry="14" fill="#2a1810" transform="rotate(18 318 292)"/>
    <ellipse cx="286" cy="332" rx="7" ry="13" fill="#2a1810" transform="rotate(8 286 332)"/>
    <ellipse cx="238" cy="308" rx="7" ry="13" fill="#2a1810" transform="rotate(-28 238 308)"/>
    <ellipse cx="328" cy="338" rx="7" ry="12" fill="#2a1810" transform="rotate(32 328 338)"/>
    <ellipse cx="252" cy="248" rx="6" ry="11" fill="#2a1810"/>
    <path d="M220 250c40 8 90 6 120-10" fill="none" stroke="#ffffff55" stroke-width="8" stroke-linecap="round"/>
  </g>
</svg>
