<svg xmlns="http://www.w3.org/2000/svg" viewBox="0 0 512 512">
  <defs>
    <radialGradient id="bg" cx="50%" cy="30%" r="70%">
      <stop offset="0%" stop-color="#fff4d4"/>
      <stop offset="100%" stop-color="#ffd7a8"/>
    </radialGradient>
    <linearGradient id="body" x1="0" y1="0" x2="0" y2="1">
      <stop offset="0%" stop-color="#ffb24a"/>
      <stop offset="50%" stop-color="#ff7a2a"/>
      <stop offset="100%" stop-color="#e25812"/>
    </linearGradient>
    <radialGradient id="skin" cx="50%" cy="40%" r="70%">
      <stop offset="0%" stop-color="#fffdf6"/>
      <stop offset="100%" stop-color="#f0e0c0"/>
    </radialGradient>
    <filter id="soft" x="-20%" y="-20%" width="140%" height="140%">
      <feDropShadow dx="0" dy="16" stdDeviation="12" flood-color="#9a4b12" flood-opacity=".28"/>
    </filter>
  </defs>
  <rect width="512" height="512" rx="72" fill="url(#bg)"/>
  <ellipse cx="256" cy="455" rx="160" ry="20" fill="#d9a56a" opacity=".35"/>
  <g filter="url(#soft)">
    <ellipse cx="256" cy="338" rx="148" ry="46" fill="#c44e10"/>
    <rect x="108" y="168" width="296" height="170" fill="url(#body)"/>
    <path d="M108 210h296M108 252h296M108 294h296" stroke="#ffd27a" stroke-width="16" opacity=".85"/>
    <ellipse cx="256" cy="168" rx="148" ry="52" fill="url(#skin)"/>
    <ellipse cx="256" cy="158" rx="110" ry="28" fill="#ffffffaa"/>
    <circle cx="164" cy="168" r="11" fill="#c47a3e"/>
    <circle cx="256" cy="152" r="11" fill="#c47a3e"/>
    <circle cx="348" cy="168" r="11" fill="#c47a3e"/>
    <circle cx="210" cy="188" r="8" fill="#c47a3e"/>
    <circle cx="302" cy="188" r="8" fill="#c47a3e"/>
  </g>
  <g transform="rotate(24 360 140)">
    <rect x="332" y="48" width="18" height="168" rx="9" fill="#6c63ff"/>
    <circle cx="341" cy="48" r="16" fill="#ffe066"/>
  </g>
  <g transform="rotate(-22 400 150)">
    <rect x="382" y="36" width="18" height="180" rx="9" fill="#ff5d8f"/>
    <circle cx="391" cy="36" r="16" fill="#ffb3c7"/>
  </g>
</svg>
