<svg xmlns="http://www.w3.org/2000/svg" viewBox="0 0 512 512">
  <defs>
    <radialGradient id="bg" cx="50%" cy="30%" r="75%">
      <stop offset="0%" stop-color="#eef6ff"/>
      <stop offset="100%" stop-color="#cfe4ff"/>
    </radialGradient>
    <radialGradient id="fur" cx="40%" cy="30%" r="70%">
      <stop offset="0%" stop-color="#d5dee8"/>
      <stop offset="60%" stop-color="#8fa3bb"/>
      <stop offset="100%" stop-color="#6b7f96"/>
    </radialGradient>
    <filter id="soft" x="-20%" y="-20%" width="140%" height="140%">
      <feDropShadow dx="0" dy="16" stdDeviation="12" flood-color="#4a6078" flood-opacity=".28"/>
    </filter>
  </defs>
  <rect width="512" height="512" rx="72" fill="url(#bg)"/>
  <ellipse cx="256" cy="458" rx="150" ry="18" fill="#9bb6d1" opacity=".4"/>
  <g filter="url(#soft)">
    <ellipse cx="256" cy="360" rx="92" ry="70" fill="url(#fur)"/>
    <circle cx="256" cy="220" r="118" fill="url(#fur)"/>
    <polygon points="150,170 112,48 214,148" fill="#7f93aa"/>
    <polygon points="362,170 400,48 298,148" fill="#7f93aa"/>
    <polygon points="154,168 128,72 200,148" fill="#e7eef5"/>
    <polygon points="358,168 384,72 312,148" fill="#e7eef5"/>
    <ellipse cx="256" cy="248" rx="86" ry="72" fill="#eef3f8"/>
    <circle cx="214" cy="210" r="18" fill="#2b3340"/>
    <circle cx="298" cy="210" r="18" fill="#2b3340"/>
    <circle cx="220" cy="204" r="6" fill="#fff"/>
    <circle cx="304" cy="204" r="6" fill="#fff"/>
    <ellipse cx="256" cy="248" rx="18" ry="12" fill="#2b3340"/>
    <path d="M226 292c18 22 42 22 60 0" fill="none" stroke="#2b3340" stroke-width="8" stroke-linecap="round"/>
    <ellipse cx="176" cy="248" rx="18" ry="14" fill="#f3c2c2" opacity=".7"/>
    <ellipse cx="336" cy="248" rx="18" ry="14" fill="#f3c2c2" opacity=".7"/>
  </g>
</svg>
